<?xml version="1.0" encoding="UTF-8"?>
<svg id="Layer_1" data-name="Layer 1" xmlns="http://www.w3.org/2000/svg" xmlns:xlink="http://www.w3.org/1999/xlink" viewBox="0 0 65.4 68.04">
  <defs>
    <style>
      .cls-1 {
        fill: #9e9d9e;
      }

      .cls-2 {
        clip-path: url(#clippath-4);
      }

      .cls-3 {
        fill: none;
      }

      .cls-4 {
        clip-path: url(#clippath-1);
      }

      .cls-5 {
        clip-path: url(#clippath-3);
      }

      .cls-6 {
        fill: #841647;
      }

      .cls-7 {
        clip-path: url(#clippath-2);
      }

      .cls-8 {
        fill: #89c540;
      }

      .cls-9 {
        clip-path: url(#clippath);
      }
    </style>
    <clipPath id="clippath">
      <path class="cls-8" d="M42.71,61.47c-1.5,0-2.72-1.22-2.72-2.72s1.22-2.72,2.72-2.72,2.72,1.22,2.72,2.72-1.22,2.72-2.72,2.72ZM32.7,0C14.64,0,0,14.64,0,32.7c0,10.75,5.18,20.28,13.19,26.24.84-2.9,3.52-5.03,6.7-5.03,1.2,0,2.37.31,3.41.89l.03-.03c-8.58-3.65-14.59-12.16-14.59-22.07,0-13.24,10.74-23.98,23.98-23.98s23.98,10.74,23.98,23.98c0,1.92-.23,3.79-.66,5.58.03.18.05.36.05.54,0,.87-.34,1.67-.9,2.26-.65,1.74-1.5,3.39-2.51,4.91.33.57.51,1.22.51,1.92,0,2.14-1.74,3.88-3.88,3.88-.58,0-1.13-.13-1.63-.36-2.72,2.18-5.93,3.77-9.43,4.6.15.43.24.89.24,1.36,0,2.24-1.83,4.07-4.07,4.07s-4.07-1.83-4.07-4.07c0-.28.03-.56.09-.83-1.04-.1-2.05-.26-3.05-.49l-1.4,1.4c.58,1.03.89,2.21.89,3.4,0,1.39-.41,2.69-1.11,3.77.63.14,1.26.25,1.89.35.51-.85,1.44-1.42,2.5-1.42,1.22,0,2.26.75,2.69,1.81,18-.07,32.57-14.68,32.57-32.7S50.76,0,32.7,0Z"/>
    </clipPath>
    <clipPath id="clippath-1">
      <path class="cls-8" d="M42.71,61.47c-1.5,0-2.72-1.22-2.72-2.72s1.22-2.72,2.72-2.72,2.72,1.22,2.72,2.72-1.22,2.72-2.72,2.72ZM32.7,0C14.64,0,0,14.64,0,32.7c0,10.75,5.18,20.28,13.19,26.24.84-2.9,3.52-5.03,6.7-5.03,1.2,0,2.37.31,3.41.89l.03-.03c-8.58-3.65-14.59-12.16-14.59-22.07,0-13.24,10.74-23.98,23.98-23.98s23.98,10.74,23.98,23.98c0,1.92-.23,3.79-.66,5.58.03.18.05.36.05.54,0,.87-.34,1.67-.9,2.26-.65,1.74-1.5,3.39-2.51,4.91.33.57.51,1.22.51,1.92,0,2.14-1.74,3.88-3.88,3.88-.58,0-1.13-.13-1.63-.36-2.72,2.18-5.93,3.77-9.43,4.6.15.43.24.89.24,1.36,0,2.24-1.83,4.07-4.07,4.07s-4.07-1.83-4.07-4.07c0-.28.03-.56.09-.83-1.04-.1-2.05-.26-3.05-.49l-1.4,1.4c.58,1.03.89,2.21.89,3.4,0,1.39-.41,2.69-1.11,3.77.63.14,1.26.25,1.89.35.51-.85,1.44-1.42,2.5-1.42,1.22,0,2.26.75,2.69,1.81,18-.07,32.57-14.68,32.57-32.7S50.76,0,32.7,0Z"/>
    </clipPath>
    <clipPath id="clippath-2">
      <rect class="cls-3" x="10.62" y="25.71" width="41.22" height="40.85"/>
    </clipPath>
    <clipPath id="clippath-3">
      <path class="cls-6" d="M25.49,60.88c0-1.36-.48-2.6-1.28-3.57l5.06-5.06c.97.8,2.22,1.28,3.57,1.28,3.1,0,5.61-2.51,5.61-5.61,0-1.55-.63-2.96-1.65-3.97l4.73-5.74c.62.39,1.36.62,2.15.62.38,0,.74-.06,1.09-.15l3.07,7.2c-.64.46-1.06,1.2-1.06,2.05,0,1.39,1.13,2.52,2.51,2.52s2.52-1.13,2.52-2.52-1.13-2.52-2.52-2.52c-.16,0-.32.02-.47.05l-3.07-7.2c1.19-.71,1.99-2,1.99-3.49,0-2.24-1.82-4.06-4.06-4.06s-4.06,1.82-4.06,4.06c0,1.07.42,2.04,1.09,2.77l-4.73,5.74c-.9-.61-1.98-.96-3.14-.96-1.59,0-3.03.66-4.05,1.73l-8.3-8.93c.88-.99,1.42-2.3,1.42-3.73,0-3.1-2.51-5.61-5.61-5.61s-5.61,2.51-5.61,5.61,2.51,5.61,5.61,5.61c1.28,0,2.47-.43,3.41-1.16l8.42,9.05c-.57.88-.9,1.92-.9,3.04,0,1.36.48,2.6,1.28,3.57l-5.06,5.06c-.97-.8-2.22-1.28-3.57-1.28-3.1,0-5.61,2.51-5.61,5.61s2.51,5.61,5.61,5.61,5.61-2.51,5.61-5.61Z"/>
    </clipPath>
    <clipPath id="clippath-4">
      <path class="cls-6" d="M25.49,60.88c0-1.36-.48-2.6-1.28-3.57l5.06-5.06c.97.8,2.22,1.28,3.57,1.28,3.1,0,5.61-2.51,5.61-5.61,0-1.55-.63-2.96-1.65-3.97l4.73-5.74c.62.39,1.36.62,2.15.62.38,0,.74-.06,1.09-.15l3.07,7.2c-.64.46-1.06,1.2-1.06,2.05,0,1.39,1.13,2.52,2.51,2.52s2.52-1.13,2.52-2.52-1.13-2.52-2.52-2.52c-.16,0-.32.02-.47.05l-3.07-7.2c1.19-.71,1.99-2,1.99-3.49,0-2.24-1.82-4.06-4.06-4.06s-4.06,1.82-4.06,4.06c0,1.07.42,2.04,1.09,2.77l-4.73,5.74c-.9-.61-1.98-.96-3.14-.96-1.59,0-3.03.66-4.05,1.73l-8.3-8.93c.88-.99,1.42-2.3,1.42-3.73,0-3.1-2.51-5.61-5.61-5.61s-5.61,2.51-5.61,5.61,2.51,5.61,5.61,5.61c1.28,0,2.47-.43,3.41-1.16l8.42,9.05c-.57.88-.9,1.92-.9,3.04,0,1.36.48,2.6,1.28,3.57l-5.06,5.06c-.97-.8-2.22-1.28-3.57-1.28-3.1,0-5.61,2.51-5.61,5.61s2.51,5.61,5.61,5.61,5.61-2.51,5.61-5.61Z"/>
    </clipPath>
  </defs>
  <path class="cls-1" d="M42.71,60.11c-.75,0-1.35-.61-1.35-1.36s.61-1.35,1.35-1.35,1.35.61,1.35,1.35-.61,1.36-1.35,1.36"/>
  <path class="cls-1" d="M34.39,60.11c-1.5,0-2.71-1.21-2.71-2.71s1.21-2.71,2.71-2.71,2.71,1.21,2.71,2.71-1.21,2.71-2.71,2.71"/>
  <path class="cls-1" d="M30.14,68.04c-.85,0-1.55-.69-1.55-1.55s.69-1.55,1.55-1.55,1.55.69,1.55,1.55-.69,1.55-1.55,1.55"/>
  <path class="cls-1" d="M19.88,49.08c-1.39,0-2.52-1.13-2.52-2.51s1.13-2.52,2.52-2.52,2.52,1.13,2.52,2.52-1.13,2.51-2.52,2.51"/>
  <path class="cls-1" d="M31.68,33.41c-1.5,0-2.71-1.21-2.71-2.71s1.21-2.71,2.71-2.71,2.71,1.21,2.71,2.71-1.21,2.71-2.71,2.71"/>
  <path class="cls-1" d="M52.77,40.76c-1.07,0-1.94-.87-1.94-1.94s.87-1.93,1.94-1.93,1.93.87,1.93,1.94-.87,1.94-1.93,1.94"/>
  <g>
    <path class="cls-8" d="M42.71,61.47c-1.5,0-2.72-1.22-2.72-2.72s1.22-2.72,2.72-2.72,2.72,1.22,2.72,2.72-1.22,2.72-2.72,2.72ZM32.7,0C14.64,0,0,14.64,0,32.7c0,10.75,5.18,20.28,13.19,26.24.84-2.9,3.52-5.03,6.7-5.03,1.2,0,2.37.31,3.41.89l.03-.03c-8.58-3.65-14.59-12.16-14.59-22.07,0-13.24,10.74-23.98,23.98-23.98s23.98,10.74,23.98,23.98c0,1.92-.23,3.79-.66,5.58.03.18.05.36.05.54,0,.87-.34,1.67-.9,2.26-.65,1.74-1.5,3.39-2.51,4.91.33.57.51,1.22.51,1.92,0,2.14-1.74,3.88-3.88,3.88-.58,0-1.13-.13-1.63-.36-2.72,2.18-5.93,3.77-9.43,4.6.15.43.24.89.24,1.36,0,2.24-1.83,4.07-4.07,4.07s-4.07-1.83-4.07-4.07c0-.28.03-.56.09-.83-1.04-.1-2.05-.26-3.05-.49l-1.4,1.4c.58,1.03.89,2.21.89,3.4,0,1.39-.41,2.69-1.11,3.77.63.14,1.26.25,1.89.35.51-.85,1.44-1.42,2.5-1.42,1.22,0,2.26.75,2.69,1.81,18-.07,32.57-14.68,32.57-32.7S50.76,0,32.7,0Z"/>
    <g class="cls-9">
      <g>
        <path class="cls-8" d="M42.71,61.47c-1.5,0-2.72-1.22-2.72-2.72s1.22-2.72,2.72-2.72,2.72,1.22,2.72,2.72-1.22,2.72-2.72,2.72ZM32.7,0C14.64,0,0,14.64,0,32.7c0,10.75,5.18,20.28,13.19,26.24.84-2.9,3.52-5.03,6.7-5.03,1.2,0,2.37.31,3.41.89l.03-.03c-8.58-3.65-14.59-12.16-14.59-22.07,0-13.24,10.74-23.98,23.98-23.98s23.98,10.74,23.98,23.98c0,1.92-.23,3.79-.66,5.58.03.18.05.36.05.54,0,.87-.34,1.67-.9,2.26-.65,1.74-1.5,3.39-2.51,4.91.33.57.51,1.22.51,1.92,0,2.14-1.74,3.88-3.88,3.88-.58,0-1.13-.13-1.63-.36-2.72,2.18-5.93,3.77-9.43,4.6.15.43.24.89.24,1.36,0,2.24-1.83,4.07-4.07,4.07s-4.07-1.83-4.07-4.07c0-.28.03-.56.09-.83-1.04-.1-2.05-.26-3.05-.49l-1.4,1.4c.58,1.03.89,2.21.89,3.4,0,1.39-.41,2.69-1.11,3.77.63.14,1.26.25,1.89.35.51-.85,1.44-1.42,2.5-1.42,1.22,0,2.26.75,2.69,1.81,18-.07,32.57-14.68,32.57-32.7S50.76,0,32.7,0Z"/>
        <g class="cls-4">
          <path class="cls-8" d="M0,0v65.4h65.4V0H0Z"/>
        </g>
      </g>
    </g>
  </g>
  <g class="cls-7">
    <g>
      <path class="cls-6" d="M25.49,60.88c0-1.36-.48-2.6-1.28-3.57l5.06-5.06c.97.8,2.22,1.28,3.57,1.28,3.1,0,5.61-2.51,5.61-5.61,0-1.55-.63-2.96-1.65-3.97l4.73-5.74c.62.39,1.36.62,2.15.62.38,0,.74-.06,1.09-.15l3.07,7.2c-.64.46-1.06,1.2-1.06,2.05,0,1.39,1.13,2.52,2.51,2.52s2.52-1.13,2.52-2.52-1.13-2.52-2.52-2.52c-.16,0-.32.02-.47.05l-3.07-7.2c1.19-.71,1.99-2,1.99-3.49,0-2.24-1.82-4.06-4.06-4.06s-4.06,1.82-4.06,4.06c0,1.07.42,2.04,1.09,2.77l-4.73,5.74c-.9-.61-1.98-.96-3.14-.96-1.59,0-3.03.66-4.05,1.73l-8.3-8.93c.88-.99,1.42-2.3,1.42-3.73,0-3.1-2.51-5.61-5.61-5.61s-5.61,2.51-5.61,5.61,2.51,5.61,5.61,5.61c1.28,0,2.47-.43,3.41-1.16l8.42,9.05c-.57.88-.9,1.92-.9,3.04,0,1.36.48,2.6,1.28,3.57l-5.06,5.06c-.97-.8-2.22-1.28-3.57-1.28-3.1,0-5.61,2.51-5.61,5.61s2.51,5.61,5.61,5.61,5.61-2.51,5.61-5.61Z"/>
      <g class="cls-5">
        <g>
          <path class="cls-6" d="M25.49,60.88c0-1.36-.48-2.6-1.28-3.57l5.06-5.06c.97.8,2.22,1.28,3.57,1.28,3.1,0,5.61-2.51,5.61-5.61,0-1.55-.63-2.96-1.65-3.97l4.73-5.74c.62.39,1.36.62,2.15.62.38,0,.74-.06,1.09-.15l3.07,7.2c-.64.46-1.06,1.2-1.06,2.05,0,1.39,1.13,2.52,2.51,2.52s2.52-1.13,2.52-2.52-1.13-2.52-2.52-2.52c-.16,0-.32.02-.47.05l-3.07-7.2c1.19-.71,1.99-2,1.99-3.49,0-2.24-1.82-4.06-4.06-4.06s-4.06,1.82-4.06,4.06c0,1.07.42,2.04,1.09,2.77l-4.73,5.74c-.9-.61-1.98-.96-3.14-.96-1.59,0-3.03.66-4.05,1.73l-8.3-8.93c.88-.99,1.42-2.3,1.42-3.73,0-3.1-2.51-5.61-5.61-5.61s-5.61,2.51-5.61,5.61,2.51,5.61,5.61,5.61c1.28,0,2.47-.43,3.41-1.16l8.42,9.05c-.57.88-.9,1.92-.9,3.04,0,1.36.48,2.6,1.28,3.57l-5.06,5.06c-.97-.8-2.22-1.28-3.57-1.28-3.1,0-5.61,2.51-5.61,5.61s2.51,5.61,5.61,5.61,5.61-2.51,5.61-5.61Z"/>
          <g class="cls-2">
            <path class="cls-6" d="M51.81,25.77H10.69v40.73h41.12V25.77Z"/>
          </g>
        </g>
      </g>
    </g>
  </g>
</svg>
