<?xml version="1.0" encoding="UTF-8"?>
<svg id="Layer_1" data-name="Layer 1" xmlns="http://www.w3.org/2000/svg" xmlns:xlink="http://www.w3.org/1999/xlink" viewBox="0 0 165.87 39.51">
  <defs>
    <clipPath id="clippath">
      <path d="M96.5,23.06c-.49,0-.89-.4-.89-.89s.4-.89.89-.89.89.4.89.89-.4.89-.89.89ZM93.21,2.87c-5.93,0-10.74,4.81-10.74,10.74,0,3.53,1.7,6.66,4.33,8.62.28-.95,1.16-1.65,2.2-1.65.39,0,.78.1,1.12.29h0c-2.82-1.21-4.79-4-4.79-7.26,0-4.35,3.53-7.88,7.88-7.88s7.88,3.53,7.88,7.88c0,.63-.07,1.24-.22,1.83,0,.06.02.12.02.18,0,.29-.11.55-.3.74-.21.57-.49,1.11-.83,1.61.11.19.17.4.17.63,0,.7-.57,1.27-1.27,1.27-.19,0-.37-.04-.53-.12-.89.72-1.95,1.24-3.1,1.51.05.14.08.29.08.45,0,.74-.6,1.34-1.34,1.34s-1.34-.6-1.34-1.34c0-.09,0-.18.03-.27-.34-.03-.67-.09-1-.16l-.46.46c.19.34.29.73.29,1.12,0,.46-.13.88-.37,1.24.21.04.41.08.62.12.17-.28.47-.47.82-.47.4,0,.74.25.89.6,5.91-.02,10.7-4.82,10.7-10.74s-4.81-10.74-10.74-10.74Z" style="fill: #fff;"/>
    </clipPath>
    <clipPath id="clippath-1">
      <path d="M96.5,23.06c-.49,0-.89-.4-.89-.89s.4-.89.89-.89.89.4.89.89-.4.89-.89.89ZM93.21,2.87c-5.93,0-10.74,4.81-10.74,10.74,0,3.53,1.7,6.66,4.33,8.62.28-.95,1.16-1.65,2.2-1.65.39,0,.78.1,1.12.29h0c-2.82-1.21-4.79-4-4.79-7.26,0-4.35,3.53-7.88,7.88-7.88s7.88,3.53,7.88,7.88c0,.63-.07,1.24-.22,1.83,0,.06.02.12.02.18,0,.29-.11.55-.3.74-.21.57-.49,1.11-.83,1.61.11.19.17.4.17.63,0,.7-.57,1.27-1.27,1.27-.19,0-.37-.04-.53-.12-.89.72-1.95,1.24-3.1,1.51.05.14.08.29.08.45,0,.74-.6,1.34-1.34,1.34s-1.34-.6-1.34-1.34c0-.09,0-.18.03-.27-.34-.03-.67-.09-1-.16l-.46.46c.19.34.29.73.29,1.12,0,.46-.13.88-.37,1.24.21.04.41.08.62.12.17-.28.47-.47.82-.47.4,0,.74.25.89.6,5.91-.02,10.7-4.82,10.7-10.74s-4.81-10.74-10.74-10.74Z" style="fill: #fff;"/>
    </clipPath>
    <clipPath id="clippath-2">
      <rect x="85.96" y="11.31" width="13.54" height="13.42" style="fill: none;"/>
    </clipPath>
    <clipPath id="clippath-3">
      <path d="M90.84,22.86c0-.45-.16-.85-.42-1.17l1.66-1.66c.32.26.73.42,1.17.42,1.02,0,1.84-.83,1.84-1.84,0-.51-.21-.97-.54-1.31l1.55-1.88c.2.13.45.2.71.2.12,0,.24-.02.36-.05l1.01,2.36c-.21.15-.35.4-.35.67,0,.46.37.83.83.83s.83-.37.83-.83-.37-.83-.83-.83c-.05,0-.1,0-.16.02l-1.01-2.36c.39-.23.65-.66.65-1.15,0-.74-.6-1.33-1.33-1.33s-1.33.6-1.33,1.33c0,.35.14.67.36.91l-1.55,1.89c-.29-.2-.65-.32-1.03-.32-.52,0-.99.22-1.33.57l-2.73-2.93c.29-.33.47-.75.47-1.22,0-1.02-.83-1.84-1.84-1.84s-1.84.82-1.84,1.84.83,1.84,1.84,1.84c.42,0,.81-.14,1.12-.38l2.76,2.97c-.19.29-.29.63-.29,1,0,.45.16.85.42,1.17l-1.66,1.66c-.32-.26-.73-.42-1.17-.42-1.02,0-1.84.83-1.84,1.84s.83,1.84,1.84,1.84,1.84-.83,1.84-1.84Z" style="fill: #831547;"/>
    </clipPath>
    <clipPath id="clippath-4">
      <path d="M90.84,22.86c0-.45-.16-.85-.42-1.17l1.66-1.66c.32.26.73.42,1.17.42,1.02,0,1.84-.83,1.84-1.84,0-.51-.21-.97-.54-1.31l1.55-1.88c.2.13.45.2.71.2.12,0,.24-.02.36-.05l1.01,2.36c-.21.15-.35.4-.35.67,0,.46.37.83.83.83s.83-.37.83-.83-.37-.83-.83-.83c-.05,0-.1,0-.16.02l-1.01-2.36c.39-.23.65-.66.65-1.15,0-.74-.6-1.33-1.33-1.33s-1.33.6-1.33,1.33c0,.35.14.67.36.91l-1.55,1.89c-.29-.2-.65-.32-1.03-.32-.52,0-.99.22-1.33.57l-2.73-2.93c.29-.33.47-.75.47-1.22,0-1.02-.83-1.84-1.84-1.84s-1.84.82-1.84,1.84.83,1.84,1.84,1.84c.42,0,.81-.14,1.12-.38l2.76,2.97c-.19.29-.29.63-.29,1,0,.45.16.85.42,1.17l-1.66,1.66c-.32-.26-.73-.42-1.17-.42-1.02,0-1.84.83-1.84,1.84s.83,1.84,1.84,1.84,1.84-.83,1.84-1.84Z" style="fill: #fff;"/>
    </clipPath>
  </defs>
  <text transform="translate(0 22.55)" style="fill: #fff; font-family: Arial-BoldMT, Arial; font-size: 25.44px; font-weight: 700;"><tspan x="0" y="0" xml:space="preserve">KEMBI   TEK</tspan></text>
  <g>
    <path d="M96.5,22.61c-.25,0-.44-.2-.44-.45s.2-.44.44-.44.44.2.44.44-.2.45-.44.45" style="fill: #9d9d9d;"/>
    <path d="M93.76,22.61c-.49,0-.89-.4-.89-.89s.4-.89.89-.89.89.4.89.89-.4.89-.89.89" style="fill: #9d9d9d;"/>
    <path d="M92.37,25.21c-.28,0-.51-.23-.51-.51s.23-.51.51-.51.51.23.51.51-.23.51-.51.51" style="fill: #9d9d9d;"/>
    <path d="M89,18.99c-.46,0-.83-.37-.83-.83s.37-.83.83-.83.83.37.83.83-.37.83-.83.83" style="fill: #9d9d9d;"/>
    <path d="M92.87,13.84c-.49,0-.89-.4-.89-.89s.4-.89.89-.89.89.4.89.89-.4.89-.89.89" style="fill: #9d9d9d;"/>
    <path d="M99.8,16.25c-.35,0-.64-.28-.64-.64s.28-.64.64-.64.64.28.64.64-.28.64-.64.64" style="fill: #9d9d9d;"/>
    <g>
      <path d="M96.5,23.06c-.49,0-.89-.4-.89-.89s.4-.89.89-.89.89.4.89.89-.4.89-.89.89ZM93.21,2.87c-5.93,0-10.74,4.81-10.74,10.74,0,3.53,1.7,6.66,4.33,8.62.28-.95,1.16-1.65,2.2-1.65.39,0,.78.1,1.12.29h0c-2.82-1.21-4.79-4-4.79-7.26,0-4.35,3.53-7.88,7.88-7.88s7.88,3.53,7.88,7.88c0,.63-.07,1.24-.22,1.83,0,.06.02.12.02.18,0,.29-.11.55-.3.74-.21.57-.49,1.11-.83,1.61.11.19.17.4.17.63,0,.7-.57,1.27-1.27,1.27-.19,0-.37-.04-.53-.12-.89.72-1.95,1.24-3.1,1.51.05.14.08.29.08.45,0,.74-.6,1.34-1.34,1.34s-1.34-.6-1.34-1.34c0-.09,0-.18.03-.27-.34-.03-.67-.09-1-.16l-.46.46c.19.34.29.73.29,1.12,0,.46-.13.88-.37,1.24.21.04.41.08.62.12.17-.28.47-.47.82-.47.4,0,.74.25.89.6,5.91-.02,10.7-4.82,10.7-10.74s-4.81-10.74-10.74-10.74Z" style="fill: #fff;"/>
      <g style="clip-path: url(#clippath);">
        <g>
          <path d="M96.5,23.06c-.49,0-.89-.4-.89-.89s.4-.89.89-.89.89.4.89.89-.4.89-.89.89ZM93.21,2.87c-5.93,0-10.74,4.81-10.74,10.74,0,3.53,1.7,6.66,4.33,8.62.28-.95,1.16-1.65,2.2-1.65.39,0,.78.1,1.12.29h0c-2.82-1.21-4.79-4-4.79-7.26,0-4.35,3.53-7.88,7.88-7.88s7.88,3.53,7.88,7.88c0,.63-.07,1.24-.22,1.83,0,.06.02.12.02.18,0,.29-.11.55-.3.74-.21.57-.49,1.11-.83,1.61.11.19.17.4.17.63,0,.7-.57,1.27-1.27,1.27-.19,0-.37-.04-.53-.12-.89.72-1.95,1.24-3.1,1.51.05.14.08.29.08.45,0,.74-.6,1.34-1.34,1.34s-1.34-.6-1.34-1.34c0-.09,0-.18.03-.27-.34-.03-.67-.09-1-.16l-.46.46c.19.34.29.73.29,1.12,0,.46-.13.88-.37,1.24.21.04.41.08.62.12.17-.28.47-.47.82-.47.4,0,.74.25.89.6,5.91-.02,10.7-4.82,10.7-10.74s-4.81-10.74-10.74-10.74Z" style="fill: #fff;"/>
          <g style="clip-path: url(#clippath-1);">
            <path d="M82.47,2.87v21.48h21.48V2.87h-21.48Z" style="fill: #fff;"/>
          </g>
        </g>
      </g>
    </g>
    <g style="clip-path: url(#clippath-2);">
      <g>
        <path d="M90.84,22.86c0-.45-.16-.85-.42-1.17l1.66-1.66c.32.26.73.42,1.17.42,1.02,0,1.84-.83,1.84-1.84,0-.51-.21-.97-.54-1.31l1.55-1.88c.2.13.45.2.71.2.12,0,.24-.02.36-.05l1.01,2.36c-.21.15-.35.4-.35.67,0,.46.37.83.83.83s.83-.37.83-.83-.37-.83-.83-.83c-.05,0-.1,0-.16.02l-1.01-2.36c.39-.23.65-.66.65-1.15,0-.74-.6-1.33-1.33-1.33s-1.33.6-1.33,1.33c0,.35.14.67.36.91l-1.55,1.89c-.29-.2-.65-.32-1.03-.32-.52,0-.99.22-1.33.57l-2.73-2.93c.29-.33.47-.75.47-1.22,0-1.02-.83-1.84-1.84-1.84s-1.84.82-1.84,1.84.83,1.84,1.84,1.84c.42,0,.81-.14,1.12-.38l2.76,2.97c-.19.29-.29.63-.29,1,0,.45.16.85.42,1.17l-1.66,1.66c-.32-.26-.73-.42-1.17-.42-1.02,0-1.84.83-1.84,1.84s.83,1.84,1.84,1.84,1.84-.83,1.84-1.84Z" style="fill: #831547;"/>
        <g style="clip-path: url(#clippath-3);">
          <g>
            <path d="M90.84,22.86c0-.45-.16-.85-.42-1.17l1.66-1.66c.32.26.73.42,1.17.42,1.02,0,1.84-.83,1.84-1.84,0-.51-.21-.97-.54-1.31l1.55-1.88c.2.13.45.2.71.2.12,0,.24-.02.36-.05l1.01,2.36c-.21.15-.35.4-.35.67,0,.46.37.83.83.83s.83-.37.83-.83-.37-.83-.83-.83c-.05,0-.1,0-.16.02l-1.01-2.36c.39-.23.65-.66.65-1.15,0-.74-.6-1.33-1.33-1.33s-1.33.6-1.33,1.33c0,.35.14.67.36.91l-1.55,1.89c-.29-.2-.65-.32-1.03-.32-.52,0-.99.22-1.33.57l-2.73-2.93c.29-.33.47-.75.47-1.22,0-1.02-.83-1.84-1.84-1.84s-1.84.82-1.84,1.84.83,1.84,1.84,1.84c.42,0,.81-.14,1.12-.38l2.76,2.97c-.19.29-.29.63-.29,1,0,.45.16.85.42,1.17l-1.66,1.66c-.32-.26-.73-.42-1.17-.42-1.02,0-1.84.83-1.84,1.84s.83,1.84,1.84,1.84,1.84-.83,1.84-1.84Z" style="fill: #fff;"/>
            <g style="clip-path: url(#clippath-4);">
              <path d="M99.48,11.33h-13.5v13.38h13.5v-13.38Z" style="fill: #fff;"/>
            </g>
          </g>
        </g>
      </g>
    </g>
  </g>
  <text transform="translate(154.84 12.82)" style="fill: #fff; font-family: Arial-BoldMT, Arial; font-size: 14.83px; font-weight: 700;"><tspan x="0" y="0">®</tspan></text>
  <text transform="translate(45.78 35.92)" style="fill: #fff; font-family: Arial-BoldMT, Arial; font-size: 9.45px; font-weight: 700;"><tspan x="0" y="0">Lab Solutions</tspan></text>
</svg>