<?xml version="1.0" encoding="UTF-8"?>
<svg id="Layer_1" data-name="Layer 1" xmlns="http://www.w3.org/2000/svg" xmlns:xlink="http://www.w3.org/1999/xlink" viewBox="0 0 504.24 120.28">
  <defs>
    <clipPath id="clippath">
      <path d="M293.01,70.19c-1.5,0-2.72-1.22-2.72-2.72s1.22-2.72,2.72-2.72,2.72,1.22,2.72,2.72-1.22,2.72-2.72,2.72ZM282.99,8.72c-18.06,0-32.7,14.64-32.7,32.7,0,10.75,5.18,20.28,13.19,26.24.84-2.9,3.52-5.03,6.7-5.03,1.2,0,2.37.31,3.41.89l.03-.03c-8.58-3.65-14.59-12.16-14.59-22.07,0-13.24,10.74-23.98,23.98-23.98s23.98,10.74,23.98,23.98c0,1.92-.23,3.79-.66,5.58.03.18.05.36.05.54,0,.87-.34,1.67-.9,2.26-.65,1.74-1.5,3.39-2.51,4.91.33.57.51,1.22.51,1.92,0,2.14-1.74,3.88-3.88,3.88-.58,0-1.13-.13-1.63-.36-2.72,2.18-5.93,3.77-9.43,4.6.15.43.24.89.24,1.36,0,2.24-1.83,4.07-4.07,4.07s-4.07-1.83-4.07-4.07c0-.28.03-.56.09-.83-1.04-.1-2.05-.26-3.05-.49l-1.4,1.4c.58,1.03.89,2.21.89,3.4,0,1.39-.41,2.69-1.11,3.77.63.14,1.26.25,1.89.35.51-.85,1.44-1.42,2.5-1.42,1.22,0,2.26.75,2.69,1.81,18-.07,32.57-14.68,32.57-32.7s-14.64-32.7-32.7-32.7Z" style="fill: #fff;"/>
    </clipPath>
    <clipPath id="clippath-1">
      <path d="M293.01,70.19c-1.5,0-2.72-1.22-2.72-2.72s1.22-2.72,2.72-2.72,2.72,1.22,2.72,2.72-1.22,2.72-2.72,2.72ZM282.99,8.72c-18.06,0-32.7,14.64-32.7,32.7,0,10.75,5.18,20.28,13.19,26.24.84-2.9,3.52-5.03,6.7-5.03,1.2,0,2.37.31,3.41.89l.03-.03c-8.58-3.65-14.59-12.16-14.59-22.07,0-13.24,10.74-23.98,23.98-23.98s23.98,10.74,23.98,23.98c0,1.92-.23,3.79-.66,5.58.03.18.05.36.05.54,0,.87-.34,1.67-.9,2.26-.65,1.74-1.5,3.39-2.51,4.91.33.57.51,1.22.51,1.92,0,2.14-1.74,3.88-3.88,3.88-.58,0-1.13-.13-1.63-.36-2.72,2.18-5.93,3.77-9.43,4.6.15.43.24.89.24,1.36,0,2.24-1.83,4.07-4.07,4.07s-4.07-1.83-4.07-4.07c0-.28.03-.56.09-.83-1.04-.1-2.05-.26-3.05-.49l-1.4,1.4c.58,1.03.89,2.21.89,3.4,0,1.39-.41,2.69-1.11,3.77.63.14,1.26.25,1.89.35.51-.85,1.44-1.42,2.5-1.42,1.22,0,2.26.75,2.69,1.81,18-.07,32.57-14.68,32.57-32.7s-14.64-32.7-32.7-32.7Z" style="fill: #fff;"/>
    </clipPath>
    <clipPath id="clippath-2">
      <rect x="260.91" y="34.43" width="41.22" height="40.85" style="fill: none;"/>
    </clipPath>
    <clipPath id="clippath-3">
      <path d="M275.79,69.6c0-1.36-.48-2.6-1.28-3.57l5.06-5.06c.97.8,2.22,1.28,3.57,1.28,3.1,0,5.61-2.51,5.61-5.61,0-1.55-.63-2.96-1.65-3.97l4.73-5.74c.62.39,1.36.62,2.15.62.38,0,.74-.06,1.09-.15l3.07,7.2c-.64.46-1.06,1.2-1.06,2.05,0,1.39,1.13,2.52,2.51,2.52s2.52-1.13,2.52-2.52-1.13-2.52-2.52-2.52c-.16,0-.32.02-.47.05l-3.07-7.2c1.19-.71,1.99-2,1.99-3.49,0-2.24-1.82-4.06-4.06-4.06s-4.06,1.82-4.06,4.06c0,1.07.42,2.04,1.09,2.77l-4.73,5.74c-.9-.61-1.98-.96-3.14-.96-1.59,0-3.03.66-4.05,1.73l-8.3-8.93c.88-.99,1.42-2.3,1.42-3.73,0-3.1-2.51-5.61-5.61-5.61s-5.61,2.51-5.61,5.61,2.51,5.61,5.61,5.61c1.28,0,2.47-.43,3.41-1.16l8.42,9.05c-.57.88-.9,1.92-.9,3.04,0,1.36.48,2.6,1.28,3.57l-5.06,5.06c-.97-.8-2.22-1.28-3.57-1.28-3.1,0-5.61,2.51-5.61,5.61s2.51,5.61,5.61,5.61,5.61-2.51,5.61-5.61Z" style="fill: none;"/>
    </clipPath>
    <clipPath id="clippath-4">
      <path d="M275.79,69.6c0-1.36-.48-2.6-1.28-3.57l5.06-5.06c.97.8,2.22,1.28,3.57,1.28,3.1,0,5.61-2.51,5.61-5.61,0-1.55-.63-2.96-1.65-3.97l4.73-5.74c.62.39,1.36.62,2.15.62.38,0,.74-.06,1.09-.15l3.07,7.2c-.64.46-1.06,1.2-1.06,2.05,0,1.39,1.13,2.52,2.51,2.52s2.52-1.13,2.52-2.52-1.13-2.52-2.52-2.52c-.16,0-.32.02-.47.05l-3.07-7.2c1.19-.71,1.99-2,1.99-3.49,0-2.24-1.82-4.06-4.06-4.06s-4.06,1.82-4.06,4.06c0,1.07.42,2.04,1.09,2.77l-4.73,5.74c-.9-.61-1.98-.96-3.14-.96-1.59,0-3.03.66-4.05,1.73l-8.3-8.93c.88-.99,1.42-2.3,1.42-3.73,0-3.1-2.51-5.61-5.61-5.61s-5.61,2.51-5.61,5.61,2.51,5.61,5.61,5.61c1.28,0,2.47-.43,3.41-1.16l8.42,9.05c-.57.88-.9,1.92-.9,3.04,0,1.36.48,2.6,1.28,3.57l-5.06,5.06c-.97-.8-2.22-1.28-3.57-1.28-3.1,0-5.61,2.51-5.61,5.61s2.51,5.61,5.61,5.61,5.61-2.51,5.61-5.61Z" style="fill: #fff;"/>
    </clipPath>
  </defs>
  <text transform="translate(0 68.65)" style="fill: #fff; font-family: Arial-BoldMT, Arial; font-size: 77.44px; font-weight: 700;"><tspan x="0" y="0" xml:space="preserve">KEMBI   TEK</tspan></text>
  <g>
    <path d="M293.01,68.83c-.75,0-1.35-.61-1.35-1.36s.61-1.35,1.35-1.35,1.35.61,1.35,1.35-.61,1.36-1.35,1.36" style="fill: #fff;"/>
    <path d="M284.69,68.83c-1.5,0-2.71-1.21-2.71-2.71s1.21-2.71,2.71-2.71,2.71,1.21,2.71,2.71-1.21,2.71-2.71,2.71" style="fill: #fff;"/>
    <path d="M280.43,76.76c-.85,0-1.55-.69-1.55-1.55s.69-1.55,1.55-1.55,1.55.69,1.55,1.55-.69,1.55-1.55,1.55" style="fill: #fff;"/>
    <path d="M270.18,57.8c-1.39,0-2.52-1.13-2.52-2.51s1.13-2.52,2.52-2.52,2.52,1.13,2.52,2.52-1.13,2.51-2.52,2.51" style="fill: #fff;"/>
    <path d="M281.98,42.13c-1.5,0-2.71-1.21-2.71-2.71s1.21-2.71,2.71-2.71,2.71,1.21,2.71,2.71-1.21,2.71-2.71,2.71" style="fill: #fff;"/>
    <path d="M303.07,49.48c-1.07,0-1.94-.87-1.94-1.94s.87-1.93,1.94-1.93,1.93.87,1.93,1.93-.87,1.94-1.93,1.94" style="fill: #fff;"/>
    <g>
      <path d="M293.01,70.19c-1.5,0-2.72-1.22-2.72-2.72s1.22-2.72,2.72-2.72,2.72,1.22,2.72,2.72-1.22,2.72-2.72,2.72ZM282.99,8.72c-18.06,0-32.7,14.64-32.7,32.7,0,10.75,5.18,20.28,13.19,26.24.84-2.9,3.52-5.03,6.7-5.03,1.2,0,2.37.31,3.41.89l.03-.03c-8.58-3.65-14.59-12.16-14.59-22.07,0-13.24,10.74-23.98,23.98-23.98s23.98,10.74,23.98,23.98c0,1.92-.23,3.79-.66,5.58.03.18.05.36.05.54,0,.87-.34,1.67-.9,2.26-.65,1.74-1.5,3.39-2.51,4.91.33.57.51,1.22.51,1.92,0,2.14-1.74,3.88-3.88,3.88-.58,0-1.13-.13-1.63-.36-2.72,2.18-5.93,3.77-9.43,4.6.15.43.24.89.24,1.36,0,2.24-1.83,4.07-4.07,4.07s-4.07-1.83-4.07-4.07c0-.28.03-.56.09-.83-1.04-.1-2.05-.26-3.05-.49l-1.4,1.4c.58,1.03.89,2.21.89,3.4,0,1.39-.41,2.69-1.11,3.77.63.14,1.26.25,1.89.35.51-.85,1.44-1.42,2.5-1.42,1.22,0,2.26.75,2.69,1.81,18-.07,32.57-14.68,32.57-32.7s-14.64-32.7-32.7-32.7Z" style="fill: #fff;"/>
      <g style="clip-path: url(#clippath);">
        <g>
          <path d="M293.01,70.19c-1.5,0-2.72-1.22-2.72-2.72s1.22-2.72,2.72-2.72,2.72,1.22,2.72,2.72-1.22,2.72-2.72,2.72ZM282.99,8.72c-18.06,0-32.7,14.64-32.7,32.7,0,10.75,5.18,20.28,13.19,26.24.84-2.9,3.52-5.03,6.7-5.03,1.2,0,2.37.31,3.41.89l.03-.03c-8.58-3.65-14.59-12.16-14.59-22.07,0-13.24,10.74-23.98,23.98-23.98s23.98,10.74,23.98,23.98c0,1.92-.23,3.79-.66,5.58.03.18.05.36.05.54,0,.87-.34,1.67-.9,2.26-.65,1.74-1.5,3.39-2.51,4.91.33.57.51,1.22.51,1.92,0,2.14-1.74,3.88-3.88,3.88-.58,0-1.13-.13-1.63-.36-2.72,2.18-5.93,3.77-9.43,4.6.15.43.24.89.24,1.36,0,2.24-1.83,4.07-4.07,4.07s-4.07-1.83-4.07-4.07c0-.28.03-.56.09-.83-1.04-.1-2.05-.26-3.05-.49l-1.4,1.4c.58,1.03.89,2.21.89,3.4,0,1.39-.41,2.69-1.11,3.77.63.14,1.26.25,1.89.35.51-.85,1.44-1.42,2.5-1.42,1.22,0,2.26.75,2.69,1.81,18-.07,32.57-14.68,32.57-32.7s-14.64-32.7-32.7-32.7Z" style="fill: #fff;"/>
          <g style="clip-path: url(#clippath-1);">
            <path d="M250.3,8.72v65.4h65.4V8.72h-65.4Z" style="fill: #fff;"/>
          </g>
        </g>
      </g>
    </g>
    <g style="clip-path: url(#clippath-2);">
      <g style="clip-path: url(#clippath-3);">
        <g>
          <path d="M275.79,69.6c0-1.36-.48-2.6-1.28-3.57l5.06-5.06c.97.8,2.22,1.28,3.57,1.28,3.1,0,5.61-2.51,5.61-5.61,0-1.55-.63-2.96-1.65-3.97l4.73-5.74c.62.39,1.36.62,2.15.62.38,0,.74-.06,1.09-.15l3.07,7.2c-.64.46-1.06,1.2-1.06,2.05,0,1.39,1.13,2.52,2.51,2.52s2.52-1.13,2.52-2.52-1.13-2.52-2.52-2.52c-.16,0-.32.02-.47.05l-3.07-7.2c1.19-.71,1.99-2,1.99-3.49,0-2.24-1.82-4.06-4.06-4.06s-4.06,1.82-4.06,4.06c0,1.07.42,2.04,1.09,2.77l-4.73,5.74c-.9-.61-1.98-.96-3.14-.96-1.59,0-3.03.66-4.05,1.73l-8.3-8.93c.88-.99,1.42-2.3,1.42-3.73,0-3.1-2.51-5.61-5.61-5.61s-5.61,2.51-5.61,5.61,2.51,5.61,5.61,5.61c1.28,0,2.47-.43,3.41-1.16l8.42,9.05c-.57.88-.9,1.92-.9,3.04,0,1.36.48,2.6,1.28,3.57l-5.06,5.06c-.97-.8-2.22-1.28-3.57-1.28-3.1,0-5.61,2.51-5.61,5.61s2.51,5.61,5.61,5.61,5.61-2.51,5.61-5.61Z" style="fill: #fff;"/>
          <g style="clip-path: url(#clippath-4);">
            <path d="M302.1,34.49h-41.12v40.73h41.12v-40.73Z" style="fill: #fff;"/>
          </g>
        </g>
      </g>
    </g>
  </g>
  <text transform="translate(470.65 39.02)" style="fill: #fff; font-family: Arial-BoldMT, Arial; font-size: 45.15px; font-weight: 700;"><tspan x="0" y="0">®</tspan></text>
  <text transform="translate(5.81 109.37)" style="fill: #fff; font-family: Arial-BoldMT, Arial; font-size: 28.77px; font-weight: 700;"><tspan x="0" y="0">Lab Solutions</tspan></text>
</svg>